<?xml version="1.0" standalone="no"?>
<!DOCTYPE svg PUBLIC "-//W3C//DTD SVG 20010904//EN"
 "http://www.w3.org/TR/2001/REC-SVG-20010904/DTD/svg10.dtd">
<svg version="1.0" xmlns="http://www.w3.org/2000/svg"
 width="512.000000pt" height="512.000000pt" viewBox="0 0 512.000000 512.000000"
 preserveAspectRatio="xMidYMid meet">

<g transform="translate(0.000000,512.000000) scale(0.100000,-0.100000)"
fill="#F0F8FF" stroke="none">
<path d="M1297 5105 c-72 -18 -45 -4 -396 -203 -391 -222 -438 -266 -513 -483
-43 -125 -46 -254 -9 -368 28 -85 104 -206 159 -251 85 -70 189 -93 259 -57
45 24 89 82 103 136 43 170 94 206 206 142 99 -57 194 -190 240 -337 39 -123
51 -107 -173 -236 -109 -62 -213 -126 -232 -143 -19 -16 -44 -52 -56 -79 -21
-48 -25 -51 -241 -176 -242 -140 -273 -168 -293 -260 -22 -103 -8 -274 39
-467 118 -487 427 -931 765 -1100 110 -55 161 -68 275 -68 130 0 155 10 413
159 186 108 217 132 217 171 0 59 -61 87 -121 56 -21 -12 -39 -19 -39 -17 0 3
9 42 20 88 63 268 13 633 -131 961 l-40 89 34 42 c110 134 161 306 161 546 0
257 -57 503 -177 762 -172 369 -461 674 -720 757 -20 7 -35 16 -32 21 6 10
213 128 270 153 85 39 225 32 343 -16 217 -87 456 -360 607 -694 28 -61 44
-84 64 -93 50 -20 101 16 101 72 0 30 -92 220 -158 326 -177 284 -409 489
-632 557 -77 23 -240 28 -313 10z m-295 -480 c152 -52 360 -234 488 -427 127
-192 234 -448 281 -678 31 -148 31 -391 1 -502 -29 -105 -63 -169 -133 -244
-38 -41 -59 -72 -59 -87 0 -14 22 -71 50 -128 62 -131 112 -284 142 -431 31
-156 31 -386 0 -501 -76 -279 -270 -390 -509 -290 -254 107 -516 422 -658 793
-90 234 -140 551 -101 645 19 44 48 46 103 6 87 -63 138 -182 153 -357 19
-211 98 -390 235 -529 283 -289 593 -99 525 322 -36 227 -162 426 -355 563
-90 64 -163 226 -152 337 9 90 34 101 128 59 78 -35 128 -41 194 -21 283 82
248 636 -59 923 -154 143 -308 161 -422 47 -50 -50 -65 -80 -94 -192 -15 -59
-37 -68 -91 -40 -81 43 -169 210 -169 321 0 58 33 183 65 245 89 177 239 234
437 166z m342 -1284 c-22 -37 -66 -58 -96 -44 -20 9 -16 13 42 46 36 20 66 34
68 32 2 -2 -4 -17 -14 -34z m-455 -408 c42 -129 112 -226 210 -293 156 -105
265 -301 278 -500 8 -125 -21 -207 -82 -230 -55 -21 -158 36 -230 128 -96 122
-141 241 -156 406 -5 61 -16 136 -25 166 -23 80 -78 179 -135 243 l-50 56 78
45 c43 25 81 46 84 46 3 0 16 -30 28 -67z"/>
<path d="M2710 4159 c-443 -250 -446 -252 -476 -342 -17 -49 -18 -137 -15
-1502 3 -1611 -1 -1514 71 -1654 67 -128 107 -161 408 -333 474 -270 573 -313
742 -325 87 -6 167 7 248 40 70 28 676 375 748 428 298 219 420 925 293 1687
-109 657 -411 1250 -804 1580 -114 96 -160 126 -512 328 -350 203 -373 214
-438 214 -46 0 -69 -11 -265 -121z m630 -224 c184 -106 369 -219 411 -250 85
-63 245 -220 315 -310 233 -299 409 -699 494 -1125 117 -579 83 -1179 -84
-1495 -54 -102 -122 -166 -269 -250 -72 -41 -132 -73 -134 -71 -1 1 13 46 32
100 141 394 140 1025 -2 1581 -128 502 -349 914 -653 1215 -146 146 -209 190
-565 395 -159 92 -294 171 -298 175 -12 11 362 228 393 229 15 0 162 -79 360
-194z m-719 -231 c101 -58 251 -145 333 -191 236 -137 364 -240 505 -408 298
-358 498 -851 576 -1425 22 -163 31 -527 16 -675 -38 -374 -151 -644 -321
-769 -85 -63 -144 -81 -260 -80 -126 1 -214 30 -390 130 -74 42 -227 128 -340
192 -113 63 -222 131 -243 151 -48 45 -84 105 -107 179 -17 53 -18 150 -21
1503 -4 1367 -3 1447 14 1472 10 15 25 27 35 27 10 0 101 -48 203 -106z"/>
<path d="M2656 3237 l-26 -26 0 -1123 c1 -857 4 -1130 13 -1151 10 -23 59 -55
241 -158 259 -145 324 -171 429 -171 325 1 507 395 476 1030 -29 577 -238
1076 -551 1315 -93 71 -483 297 -525 304 -25 4 -37 0 -57 -20z m287 -274 c83
-48 183 -113 222 -144 292 -236 475 -740 476 -1314 0 -151 -12 -310 -25 -323
-2 -2 -62 30 -132 71 l-129 73 -5 497 c-6 549 -3 527 -70 529 -25 1 -40 -6
-57 -26 l-23 -27 0 -488 0 -488 -200 -112 c-110 -61 -204 -111 -210 -111 -7 0
-10 316 -10 975 0 536 3 975 6 975 4 0 74 -39 157 -87z m489 -1854 c79 -44
144 -82 147 -84 8 -9 -68 -153 -99 -189 -69 -78 -171 -99 -276 -58 -59 23
-326 174 -328 185 -1 8 383 225 402 226 6 1 76 -35 154 -80z"/>
</g>
</svg>
