<svg width="551" height="173" viewBox="0 0 551 173" fill="none" xmlns="http://www.w3.org/2000/svg">
<path d="M450.757 60.3604C450.757 61.0439 450.708 61.7031 450.61 62.3379C450.562 62.9727 450.488 63.6318 450.391 64.3154L449.219 70.9805H357.593L362.866 41.0244H431.201C436.914 41.0244 441.602 42.8555 445.264 46.5176C448.926 50.1797 450.757 54.7939 450.757 60.3604ZM447.754 79.3301C447.168 82.748 444.336 86.6299 439.258 90.9756C442.334 94.7842 443.872 98.1289 443.872 101.01C443.872 101.254 443.848 101.522 443.799 101.815C443.799 102.108 443.774 102.401 443.726 102.694L441.089 117.636C440.015 124.032 436.743 129.55 431.274 134.188C425.903 138.729 419.995 141 413.55 141H345.435L350.562 110.971H412.231L413.77 102.694H385.425L389.38 79.3301H447.754ZM550.806 60.3604C550.806 61.0439 550.757 61.7031 550.659 62.3379C550.61 62.9727 550.537 63.6318 550.439 64.3154L549.268 70.9805H457.642L462.915 41.0244H531.25C536.963 41.0244 541.65 42.8555 545.312 46.5176C548.975 50.1797 550.806 54.7939 550.806 60.3604ZM547.803 79.3301L541.138 117.636C540.063 124.032 536.792 129.55 531.323 134.188C525.952 138.729 520.044 141 513.599 141H445.483L456.104 79.3301H486.133L480.64 110.971H512.28L517.773 79.3301H547.803Z" fill="white"/>
<path d="M118.167 41.0244L112.82 70.9805H21.1943L22.3662 64.3154C23.4404 57.8701 26.6631 52.377 32.0342 47.8359C37.4541 43.2949 43.3867 41.0244 49.832 41.0244H118.167ZM105.862 110.971L100.516 141H32.1807C26.4678 141 21.8291 139.169 18.2646 135.507C14.6514 131.796 12.8447 127.23 12.8447 121.811C12.8447 121.127 12.8691 120.443 12.918 119.76C12.9668 119.027 13.04 118.319 13.1377 117.636L19.6562 79.3301H49.6855L44.1924 110.971H105.862ZM234.915 41.0244L229.568 70.9805H182.254L204.886 41.0244H234.915ZM168.558 70.9805H121.243L126.517 41.0244H156.546L168.558 70.9805ZM228.03 79.3301L217.19 141H187.234L194.559 99.1787L163.064 141L146.219 99.1787L138.895 141H109.085L119.705 79.3301H228.03ZM326.614 41.0244L321.268 70.9805H237.991L243.265 41.0244H326.614ZM319.803 79.3301L315.774 102.694H262.454L255.643 141H225.833L236.453 79.3301H319.803Z" fill="#CC0000"/>
</svg>
